<?xml version="1.0" encoding="iso-8859-1"?>
<!-- Generator: Adobe Illustrator 19.0.0, SVG Export Plug-In . SVG Version: 6.00 Build 0)  -->
<svg version="1.1" id="Capa_1" xmlns="http://www.w3.org/2000/svg" xmlns:xlink="http://www.w3.org/1999/xlink" x="0px" y="0px"
	 viewBox="0 0 510.463 510.463" style="enable-background:new 0 0 510.463 510.463;" xml:space="preserve">
<circle style="fill:#B0E1F5;" cx="255.232" cy="255.233" r="255.231"/>
<circle style="fill:#E6E6E6;" cx="255.232" cy="255.233" r="255.231"/>
<path style="fill:#EBEBEB;" d="M26.404,281.636c0-140.959,114.274-255.233,255.233-255.233c63.756,0,122.009,23.437,166.747,62.083
	C401.576,34.325,332.434,0,255.232,0C114.275,0,0,114.274,0,255.233c0,77.203,34.325,146.345,88.487,193.148
	C49.84,403.645,26.404,345.391,26.404,281.636z"/>
<circle style="fill:#F2F2F2;" cx="255.232" cy="255.233" r="193.623"/>
<path style="fill:#F5BB00;" d="M451.268,117.785c-3.433-3.432-9.012-3.432-12.445,0l-71.57,71.57l-12.444-12.453l71.57-71.571
	c3.432-3.432,3.432-9.012,0-12.444c-3.433-3.432-9.012-3.432-12.445,0l-71.57,71.571l-12.444-12.444l71.57-71.571
	c3.432-3.432,3.432-9.012,0-12.444c-3.433-3.432-9.012-3.432-12.445,0l-68.455,68.455l-24.89,24.889
	c-14.549,14.549-16.643,36.692-6.557,53.59l-12.11,2.42L149.558,344.818c-27.371,14.928-52.518,38.778-59.883,46.154
	c-13.747,13.748-16.853,32.933-6.548,43.239c10.307,10.304,30.303,8.009,44.05-5.738c7.366-7.366,26.113-37.589,47.253-58.738
	l127.475-127.475l2.42-12.11c16.898,10.085,39.042,7.992,53.59-6.558l24.89-24.889l68.455-68.455
	C454.7,126.798,454.7,121.217,451.268,117.785z"/>
<g>
	<path style="fill:#F7C933;" d="M445.046,124.007l-71.571,71.572l6.222,6.222l71.571-71.571c3.432-3.432,2.789-9.655-0.643-13.087
		c-1.161-1.161-2.261-1.46-3.739-1.84C447.625,118.216,447.325,121.728,445.046,124.007z"/>
	<path style="fill:#F7C933;" d="M420.147,99.118l-71.571,71.571l6.223,6.222l71.571-71.57c3.432-3.432,2.79-9.655-0.641-13.087
		c-1.162-1.162-2.263-1.46-3.741-1.84C422.727,93.327,422.427,96.838,420.147,99.118z"/>
	<path style="fill:#F7C933;" d="M108.341,409.639c7.367-7.367,32.512-31.217,59.882-46.153l127.458-127.458l7.138-2.201l0.546-4.656
		c0.749,0.449,2.042,1.223,2.808,1.619c-8.599-16.564-5.721-36.876,8.177-50.774l21.782-21.783l-6.223-6.222l71.572-71.57
		c3.431-3.432,3.431-9.012,0-12.444c-3.433-3.432-9.012-3.432-12.445,0l-68.455,68.455l-24.891,24.89
		c-14.548,14.549-16.643,36.692-6.556,53.59l-12.111,2.42L149.558,344.818c-27.371,14.928-52.518,38.778-59.883,46.154
		c-13.747,13.748-16.853,32.933-6.548,43.239c3.415,3.414,8.054,5.429,12.947,6.046C94.832,430.383,99.153,418.828,108.341,409.639z
		"/>
</g>
<path style="fill:#F5BB00;" d="M362.915,332.778l-65.243-65.242l-6.223-6.224L101.837,71.703L89.349,84.192
	c-24.063,24.063-21.106,65.929,2.957,89.992l146.451,146.45l31.12-31.121l68.139,68.139c14.927,27.371,39.402,51.89,46.768,59.267
	c13.748,13.746,33.243,16.546,43.548,6.231c10.315-10.314,7.542-29.834-6.204-43.583
	C414.753,372.207,390.285,347.706,362.915,332.778z"/>
<g>
	<path style="fill:#F7C933;" d="M123.418,155.515c-19.733-19.731-23.93-48.82-10.623-72.855l-10.958-10.957L89.349,84.192
		c-24.063,24.063-21.106,65.929,2.957,89.992l146.451,146.45l24.889-24.888L123.418,155.515z"/>
	<path style="fill:#F7C933;" d="M415.887,398.251c-7.367-7.367-31.842-31.886-46.769-59.268l-6.204-6.205l-61.934-61.933
		l-24.89,24.89l61.915,61.915c14.928,27.373,39.403,51.892,46.768,59.267c13.748,13.748,33.243,16.548,43.548,6.233
		c3.662-3.662,5.607-8.529,6.054-13.845C427.928,407.474,421.441,403.803,415.887,398.251z"/>
</g>
<g>
	<path style="fill:#F9D666;" d="M101.794,146.433l-18.623,18.623L95.615,177.5l18.623-18.623c3.44-3.442,3.431-9.012,0-12.444
		C110.797,142.992,105.226,142.992,101.794,146.433z"/>
	<path style="fill:#F9D666;" d="M126.683,171.323l-18.622,18.623l12.444,12.444l18.623-18.623c3.44-3.442,3.431-9.012,0-12.444
		C135.696,167.891,130.124,167.89,126.683,171.323z"/>
	<path style="fill:#F9D666;" d="M151.573,196.221l-18.623,18.623l12.444,12.444l18.623-18.623c3.44-3.441,3.432-9.012,0-12.444
		C160.585,192.78,155.013,192.78,151.573,196.221z"/>
	<path style="fill:#F9D666;" d="M176.471,221.111l-18.623,18.623l12.444,12.444l18.623-18.623c3.442-3.441,3.431-9.012,0-12.444
		C185.483,217.669,179.904,217.669,176.471,221.111z"/>
	<path style="fill:#F9D666;" d="M201.36,246l-18.622,18.623l12.444,12.444l18.623-18.623c3.442-3.441,3.431-9.012,0-12.444
		C210.372,242.567,204.802,242.567,201.36,246z"/>
	<path style="fill:#F9D666;" d="M226.259,270.898l-18.623,18.623l12.444,12.444l18.623-18.622c3.442-3.442,3.433-9.012,0-12.444
		C235.263,267.457,229.691,267.457,226.259,270.898z"/>
</g>
<g>
</g>
<g>
</g>
<g>
</g>
<g>
</g>
<g>
</g>
<g>
</g>
<g>
</g>
<g>
</g>
<g>
</g>
<g>
</g>
<g>
</g>
<g>
</g>
<g>
</g>
<g>
</g>
<g>
</g>
</svg>
