<?xml version="1.0" encoding="iso-8859-1"?>
<!-- Generator: Adobe Illustrator 19.0.0, SVG Export Plug-In . SVG Version: 6.00 Build 0)  -->
<svg version="1.1" id="Capa_1" xmlns="http://www.w3.org/2000/svg" xmlns:xlink="http://www.w3.org/1999/xlink" x="0px" y="0px"
	 viewBox="0 0 512 512" style="enable-background:new 0 0 512 512;" xml:space="preserve">
<circle style="fill:#303C42;" cx="256" cy="256" r="170.667"/>
<circle style="fill:#F2F2F2;" cx="256" cy="256" r="149.333"/>
<path style="opacity:0.1;enable-background:new    ;" d="M149.333,288c0-82.344,67-149.333,149.333-149.333
	c23.938,0,46.5,5.802,66.576,15.858c-27.289-29.357-66.102-47.858-109.242-47.858c-82.333,0-149.333,66.99-149.333,149.333
	c0,58.402,33.783,108.943,82.758,133.475C164.634,362.806,149.333,327.198,149.333,288z"/>
<g>
	<path style="fill:#303C42;" d="M266.667,138.667c0-5.896-4.771-10.667-10.667-10.667c-70.583,0-128,57.417-128,128
		c0,5.896,4.771,10.667,10.667,10.667s10.667-4.771,10.667-10.667c0-58.813,47.854-106.667,106.667-106.667
		C261.896,149.333,266.667,144.563,266.667,138.667z"/>
	<path style="fill:#303C42;" d="M256,362.667c-5.896,0-10.667,4.771-10.667,10.667S250.104,384,256,384c70.583,0,128-57.417,128-128
		c0-5.896-4.771-10.667-10.667-10.667s-10.667,4.771-10.667,10.667C362.667,314.813,314.813,362.667,256,362.667z"/>
	<path style="fill:#303C42;" d="M501.333,85.333c-29.417,0-53.333,23.927-53.333,53.333V256c0,17.646,14.354,32,32,32h10.667v128
		c0,5.896,4.771,10.667,10.667,10.667S512,421.896,512,416V96C512,90.104,507.229,85.333,501.333,85.333z"/>
</g>
<path style="fill:#E6E6E6;" d="M490.667,266.667H480c-5.875,0-10.667-4.781-10.667-10.667V138.667
	c0-13.906,8.917-25.771,21.333-30.177V266.667z"/>
<path style="fill:#303C42;" d="M85.333,192V96c0-5.896-4.771-10.667-10.667-10.667C68.771,85.333,64,90.104,64,96v96
	c0,7.794-4.408,14.332-10.667,18.056V96c0-5.896-4.771-10.667-10.667-10.667S32,90.104,32,96v114.056
	c-6.259-3.724-10.667-10.262-10.667-18.056V96c0-5.896-4.771-10.667-10.667-10.667S0,90.104,0,96v96
	c0,19.826,13.654,36.382,32,41.151V416c0,5.896,4.771,10.667,10.667,10.667S53.333,421.896,53.333,416V233.151
	C71.68,228.382,85.333,211.826,85.333,192z"/>
<linearGradient id="SVGID_1_" gradientUnits="userSpaceOnUse" x1="-47.3413" y1="640.7272" x2="-21.7971" y2="628.8161" gradientTransform="matrix(21.3333 0 0 -21.3333 996.3334 13791.667)">
	<stop  offset="0" style="stop-color:#FFFFFF;stop-opacity:0.2"/>
	<stop  offset="1" style="stop-color:#FFFFFF;stop-opacity:0"/>
</linearGradient>
<path style="fill:url(#SVGID_1_);" d="M256,85.333c-94.104,0-170.667,76.563-170.667,170.667S161.896,426.667,256,426.667
	S426.667,350.104,426.667,256S350.104,85.333,256,85.333z M501.333,85.333c-29.417,0-53.333,23.927-53.333,53.333V256
	c0,17.646,14.354,32,32,32h10.667v128c0,5.896,4.771,10.667,10.667,10.667S512,421.896,512,416V96
	C512,90.104,507.229,85.333,501.333,85.333z M85.333,96c0-5.896-4.771-10.667-10.667-10.667C68.771,85.333,64,90.104,64,96v96
	c0,7.794-4.408,14.332-10.667,18.056V96c0-5.896-4.771-10.667-10.667-10.667S32,90.104,32,96v114.056
	c-6.259-3.724-10.667-10.262-10.667-18.056V96c0-5.896-4.771-10.667-10.667-10.667S0,90.104,0,96v96
	c0,19.826,13.654,36.382,32,41.151V416c0,5.896,4.771,10.667,10.667,10.667S53.333,421.896,53.333,416V233.151
	c18.346-4.77,32-21.326,32-41.151V96z"/>
<g>
</g>
<g>
</g>
<g>
</g>
<g>
</g>
<g>
</g>
<g>
</g>
<g>
</g>
<g>
</g>
<g>
</g>
<g>
</g>
<g>
</g>
<g>
</g>
<g>
</g>
<g>
</g>
<g>
</g>
</svg>
